<svg viewBox="0 0 400 400" xmlns="http://www.w3.org/2000/svg"><title id="simpleicons-artstation-icon">Artstation icon</title><path d="M163 29.4L190 77a3228.3 3228.3 0 0 1 28.9 50.8c1 1.5 3.3 5.4 5 8.7l5.3 9.5 5 9 4.4 7.7 4 7L277 230a7744.7 7744.7 0 0 1 39.8 70 390.5 390.5 0 0 0 10.9 19l4.1 7.5c2 3.3 4.9 8.5 6.6 11.6a391.2 391.2 0 0 0 19.8 33.9c.6 0 2-2.3 10.4-17.5a376.4 376.4 0 0 1 11-19.5l9.6-17c7.2-12.4 7.3-12.9 7.3-24 0-12.7.8-10.8-20.5-48a2401.1 2401.1 0 0 1-25-44c-.5-.5-1.6-2.4-8-14.5a56.3 56.3 0 0 0-3.9-6.5 2555.7 2555.7 0 0 0-24.1-42.5A6043.6 6043.6 0 0 1 281.3 79c-16-31.9-25.2-43.2-38.8-48.2-4.5-1.6-79.5-3-79.5-1.4M119.2 88a89.2 89.2 0 0 1-6.3 10.9 111.7 111.7 0 0 1-6.5 11.5 70.3 70.3 0 0 0-3.1 5.5c-.4.8-2 3.8-3.8 6.5-1.7 2.8-3.7 6.3-4.5 8-.8 1.7-1.8 3.2-2 3.5-.4.3-2.4 3.7-4.5 7.5-5 9.3-6.2 11.3-9 16-1.4 2.2-3.2 5.6-4.2 7.5-1 2-2 3.7-2.3 4-.4.3-2 3-3.5 6-1.6 3-3.4 6.2-4 7a87 87 0 0 0-4.6 8c-1.9 3.6-3.8 7-4.2 7.5-.5.5-5 8.4-10.3 17.5L37 231.5l84.2.3c46.2.1 84.3 0 84.5-.2.2-.2-15.6-28.5-35.3-62.7a9125.2 9125.2 0 0 1-47-83.2c-1-2.6-1.8-2.1-4.2 2.4M6 299.8l8 14c2.7 4.5 4.9 8.5 4.9 8.8 0 .3.8 1.8 1.8 3.2 1 1.5 3.2 5.2 4.7 8.2 1.6 3 3.4 6.2 4 7a87 87 0 0 1 4.6 8c4.2 8 11.8 15.9 19 19.6l5.4 2.9 113.9.3 113.8.2-2.2-3.7-4-6.8-5.7-9.5a1757 1757 0 0 1-13.4-22.8 1049.4 1049.4 0 0 0-18.6-32l-1.7-3.2H3l3.2 5.8" fill-rule="evenodd"/></svg>