<svg xmlns="http://www.w3.org/2000/svg" version="1" viewBox="0 0 569 568"><path d="M0 284zM295.8 24.6c1.6.5 1.4 1.2-3.8 15.4l-11.9 33a13009.4 13009.4 0 0 1-21.2 59.5L244.8 172a3619.7 3619.7 0 0 1-19.8 55.5L214.5 257a260.9 260.9 0 0 1-7.5 20.4c0 .3 1.9.7 4.3 1.1L237 282a11488 11488 0 0 0 87 11.5c5.2.8 18.7 2.6 30 4l39.3 5.1c10.4 1.4 19.1 2.4 19.4 2 .9-.9 2.3-9.4 3.8-23.6a563 563 0 0 0 .5-73.5c-4.9-52.1-19.1-90.3-37.6-101.1l-4.4-2.6 2.2-4.1c2.9-5.2 8.3-9.1 16.1-11.6 8.1-2.6 9.4-2.8 28.2-4.6 18.1-1.8 19.1-2 26-5 4.5-2 10.4-7.3 13-12 1-1.6 1.6-1.4 9.1 2.3a75.2 75.2 0 0 1 40.5 50.7c2.2 8.2 2.4 11 2.4 31 0 22-.8 29.6-5.1 49.8a751.4 751.4 0 0 1-33.9 105.6 32.3 32.3 0 0 0-2.3 6.7c.2.1 6.1 1.1 13.2 2.1 8.4 1.1 13 2.2 13.3 3.1 1.3 3.1-3.2 10.8-10.1 17.7a55.3 55.3 0 0 1-16.6 11.7c-5.2 2.5-12 5.3-15 6.2l-5.5 1.6-7.5 12.7a1565.8 1565.8 0 0 1-66.9 98.9 374 374 0 0 1-49.5 49.6c-14.4 11.4-29 20-41.1 24.5a42 42 0 0 1-20.8 3.5c-25.2-.2-45.8-9.7-68.5-31.6-23-22.2-40.9-46.7-67.2-92.1-29.6-51.1-49.7-98.3-60.9-142.4A314 314 0 0 1 56.7 194c0-38.6 7.5-68.7 22.5-90.9 4.9-7.2 17.7-19.4 24.2-23.1l5.9-3.3 1.6 2.1c.9 1.2 3 2.6 4.6 3.3 3.6 1.4 20.7 1.4 33.1-.1 12.6-1.4 23.6-1.3 25.8.3 2.8 2.1 1.4 4.7-7.3 13.4-18.8 18.9-35.4 52.7-42.6 86.5-7.3 34.7-7.2 74.3.4 104.7 7.4 29.6 20.7 50.7 51.6 81.7 44 44 94.4 74.6 128.5 78l7 .7 5.6-4.3c20.3-15.3 43.3-40.7 63.7-70.2 2.6-3.8 4.7-7 4.7-7.3 0-.3-9.6-.5-21.3-.5a449 449 0 0 1-95.7-9.5 447 447 0 0 1-80.3-23.5c-.6 0-2.9 4.9-5 10.9-5.6 16.4-6.4 18.1-8.7 18.1-2.4 0-10.1-7.4-12.4-11.8-2.8-5.4-6.7-20.5-7.3-28.4l-.6-7.7-5.3-3.6a82.8 82.8 0 0 1-22.3-24.6c-3.1-6.4-4.4-15-2.5-16.8.5-.5 6.8-.1 14.4 1 19.6 2.6 17.6 3.3 18.9-6.4 11.6-81.4 57.2-183.1 99.7-222.5 14.5-13.5 27.7-18.9 38.2-15.6z"/></svg>